<svg width="34" height="34" viewBox="0 0 34 34" fill="none" xmlns="http://www.w3.org/2000/svg">
    <circle cx="17" cy="17" r="16" fill="#D9D9D9" stroke="#161241" stroke-width="2"/>
    <path d="M17 21.125C17.9375 21.125 18.7345 20.7968 19.391 20.1403C20.0475 19.4838 20.3755 18.687 20.375 17.75C20.375 16.8125 20.0468 16.0155 19.3903 15.359C18.7338 14.7025 17.937 14.3745 17 14.375C16.0625 14.375 15.2655 14.7033 14.609 15.3598C13.9525 16.0163 13.6245 16.813 13.625 17.75C13.625 18.6875 13.9533 19.4845 14.6098 20.141C15.2663 20.7975 16.063 21.1255 17 21.125ZM11 23.75C10.5875 23.75 10.2343 23.603 9.94025 23.309C9.64625 23.015 9.4995 22.662 9.5 22.25V13.25C9.5 12.8375 9.647 12.4843 9.941 12.1903C10.235 11.8963 10.588 11.7495 11 11.75H13.3625L14.3 10.7375C14.4375 10.575 14.6033 10.453 14.7973 10.3715C14.9913 10.29 15.194 10.2495 15.4055 10.25H18.593C18.8055 10.25 19.0088 10.2908 19.2028 10.3723C19.3968 10.4538 19.5623 10.5755 19.6993 10.7375L20.6375 11.75H23C23.4125 11.75 23.7658 11.897 24.0598 12.191C24.3538 12.485 24.5005 12.838 24.5 13.25V22.25C24.5 22.6625 24.353 23.0158 24.059 23.3098C23.765 23.6038 23.412 23.7505 23 23.75H11Z" fill="black"/>
</svg>
